<mxfile host="app.diagrams.net" modified="2022-04-18T14:53:51.877Z" agent="5.0 (Windows NT 10.0; Win64; x64) AppleWebKit/537.36 (KHTML, like Gecko) Chrome/100.0.4896.127 Safari/537.36" etag="3m11HJcW9Hn_OSaZqKOE" version="17.4.5" type="github">
  <diagram id="tZ6HXYHqEJNceK6MpMHH" name="Page-1">
    <mxGraphModel dx="1673" dy="896" grid="1" gridSize="10" guides="1" tooltips="1" connect="1" arrows="1" fold="1" page="1" pageScale="1" pageWidth="1600" pageHeight="900" math="0" shadow="0">
      <root>
        <mxCell id="0" />
        <mxCell id="1" parent="0" />
        <mxCell id="xGp0LWbcIa5WqA4ROiRo-16" style="edgeStyle=orthogonalEdgeStyle;rounded=0;orthogonalLoop=1;jettySize=auto;html=1;fontFamily=Courier New;fontSize=17;" edge="1" parent="1" source="xGp0LWbcIa5WqA4ROiRo-4">
          <mxGeometry relative="1" as="geometry">
            <mxPoint x="460" y="220" as="targetPoint" />
          </mxGeometry>
        </mxCell>
        <mxCell id="xGp0LWbcIa5WqA4ROiRo-4" value="" style="shape=image;verticalLabelPosition=bottom;labelBackgroundColor=default;verticalAlign=top;aspect=fixed;imageAspect=0;image=https://seeklogo.com/images/O/oculus-logo-7074DF63CC-seeklogo.com.png;" vertex="1" parent="1">
          <mxGeometry x="60" y="180" width="98.76" height="80" as="geometry" />
        </mxCell>
        <mxCell id="xGp0LWbcIa5WqA4ROiRo-15" value="PYTHON" style="swimlane;dashed=1;strokeColor=#4D4D4D;fillColor=none;startSize=50;fontSize=17;fontFamily=Courier New;fontStyle=0" vertex="1" parent="1">
          <mxGeometry x="470" y="200" width="920" height="700" as="geometry" />
        </mxCell>
        <mxCell id="xGp0LWbcIa5WqA4ROiRo-24" value="&lt;pre style=&quot;overflow: auto hidden ; clear: both ; padding: 5px ; background-color: rgb(238 , 255 , 204) ; color: rgb(51 , 51 , 51) ; line-height: 19.3px ; border: 1px solid rgb(170 , 204 , 153) ; font-family: &amp;#34;monospace&amp;#34; , monospace ; font-size: 15.44px ; margin: 0px ; border-radius: 3px ; font-style: normal ; font-weight: 400 ; letter-spacing: normal ; text-indent: 0px ; text-transform: none ; word-spacing: 0px&quot;&gt;&lt;span class=&quot;kn&quot; style=&quot;color: rgb(0 , 128 , 0) ; font-weight: bold&quot;&gt;import&lt;/span&gt; &lt;span class=&quot;nn&quot; style=&quot;color: rgb(0 , 0 , 255) ; font-weight: bold&quot;&gt;argparse&lt;/span&gt;&lt;br&gt;&lt;span class=&quot;k&quot; style=&quot;color: rgb(0 , 128 , 0) ; font-weight: bold&quot;&gt;&lt;br/&gt;if&lt;/span&gt; &lt;span class=&quot;vm&quot; style=&quot;color: rgb(25 , 23 , 124)&quot;&gt;__name__&lt;/span&gt; &lt;span class=&quot;o&quot; style=&quot;color: rgb(102 , 102 , 102)&quot;&gt;==&lt;/span&gt; &lt;span class=&quot;s1&quot; style=&quot;color: rgb(186 , 33 , 33)&quot;&gt;&#39;__main__&#39;&lt;/span&gt;&lt;span class=&quot;p&quot;&gt;:&lt;/span&gt;&lt;br&gt;    &lt;span class=&quot;n&quot;&gt;parser&lt;/span&gt; &lt;span class=&quot;o&quot; style=&quot;color: rgb(102 , 102 , 102)&quot;&gt;=&lt;/span&gt; &lt;span class=&quot;n&quot;&gt;argparse&lt;/span&gt;&lt;span class=&quot;o&quot; style=&quot;color: rgb(102 , 102 , 102)&quot;&gt;.&lt;/span&gt;&lt;span class=&quot;n&quot;&gt;ArgumentParser&lt;/span&gt;&lt;span class=&quot;p&quot;&gt;()&lt;/span&gt;&lt;br&gt;    &lt;span class=&quot;n&quot;&gt;parser&lt;/span&gt;&lt;span class=&quot;o&quot; style=&quot;color: rgb(102 , 102 , 102)&quot;&gt;.&lt;/span&gt;&lt;span class=&quot;n&quot;&gt;add_argument&lt;/span&gt;&lt;span class=&quot;p&quot;&gt;(&lt;/span&gt;&lt;span class=&quot;s1&quot; style=&quot;color: rgb(186 , 33 , 33)&quot;&gt;&#39;-o&#39;&lt;/span&gt;&lt;span class=&quot;p&quot;&gt;,&lt;/span&gt; &lt;span class=&quot;s1&quot; style=&quot;color: rgb(186 , 33 , 33)&quot;&gt;&#39;--output&#39;&lt;/span&gt;&lt;span class=&quot;p&quot;&gt;)&lt;/span&gt;&lt;br&gt;    &lt;span class=&quot;n&quot;&gt;parser&lt;/span&gt;&lt;span class=&quot;o&quot; style=&quot;color: rgb(102 , 102 , 102)&quot;&gt;.&lt;/span&gt;&lt;span class=&quot;n&quot;&gt;add_argument&lt;/span&gt;&lt;span class=&quot;p&quot;&gt;(&lt;/span&gt;&lt;span class=&quot;s1&quot; style=&quot;color: rgb(186 , 33 , 33)&quot;&gt;&#39;-v&#39;&lt;/span&gt;&lt;span class=&quot;p&quot;&gt;,&lt;/span&gt; &lt;span class=&quot;n&quot;&gt;dest&lt;/span&gt;&lt;span class=&quot;o&quot; style=&quot;color: rgb(102 , 102 , 102)&quot;&gt;=&lt;/span&gt;&lt;span class=&quot;s1&quot; style=&quot;color: rgb(186 , 33 , 33)&quot;&gt;&#39;verbose&#39;&lt;/span&gt;&lt;span class=&quot;p&quot;&gt;,&lt;/span&gt; &lt;span class=&quot;n&quot;&gt;action&lt;/span&gt;&lt;span class=&quot;o&quot; style=&quot;color: rgb(102 , 102 , 102)&quot;&gt;=&lt;/span&gt;&lt;span class=&quot;s1&quot; style=&quot;color: rgb(186 , 33 , 33)&quot;&gt;&#39;store_true&#39;&lt;/span&gt;&lt;span class=&quot;p&quot;&gt;)&lt;/span&gt;&lt;br&gt;    &lt;span class=&quot;n&quot;&gt;args&lt;/span&gt; &lt;span class=&quot;o&quot; style=&quot;color: rgb(102 , 102 , 102)&quot;&gt;=&lt;/span&gt; &lt;span class=&quot;n&quot;&gt;parser&lt;/span&gt;&lt;span class=&quot;o&quot; style=&quot;color: rgb(102 , 102 , 102)&quot;&gt;.&lt;/span&gt;&lt;span class=&quot;n&quot;&gt;parse_args&lt;/span&gt;&lt;span class=&quot;p&quot;&gt;()&lt;/span&gt;&lt;br&gt;    &lt;span class=&quot;c1&quot; style=&quot;color: rgb(61 , 123 , 123) ; font-style: italic&quot;&gt;# ... do something with args.output ...&lt;/span&gt;&lt;br&gt;    &lt;span class=&quot;c1&quot; style=&quot;color: rgb(61 , 123 , 123) ; font-style: italic&quot;&gt;# ... do something with args.verbose ..&lt;/span&gt;&lt;/pre&gt;" style="text;whiteSpace=wrap;html=1;fontSize=12;fontFamily=Courier New;" vertex="1" parent="xGp0LWbcIa5WqA4ROiRo-15">
          <mxGeometry x="20" y="70" width="550" height="220" as="geometry" />
        </mxCell>
        <mxCell id="xGp0LWbcIa5WqA4ROiRo-25" value="Parsowanie argumentÃ³w" style="strokeWidth=1;html=1;shape=mxgraph.flowchart.annotation_1;align=left;pointerEvents=1;shadow=0;labelBorderColor=none;fontFamily=Courier New;fontSize=16;fillColor=none;direction=west;strokeColor=#B3B3B3;fontColor=default;verticalAlign=middle;spacing=61;" vertex="1" parent="xGp0LWbcIa5WqA4ROiRo-15">
          <mxGeometry x="610" y="80" width="50" height="180" as="geometry" />
        </mxCell>
        <mxCell id="xGp0LWbcIa5WqA4ROiRo-26" value="arguments" style="swimlane;fontStyle=0;childLayout=stackLayout;horizontal=1;startSize=30;horizontalStack=0;resizeParent=1;resizeParentMax=0;resizeLast=0;collapsible=1;marginBottom=0;shadow=0;labelBorderColor=none;fontFamily=Courier New;fontSize=16;fontColor=default;strokeColor=#B3B3B3;strokeWidth=1;fillColor=none;" vertex="1" parent="1">
          <mxGeometry x="180" y="40" width="280" height="150" as="geometry" />
        </mxCell>
        <mxCell id="xGp0LWbcIa5WqA4ROiRo-27" value="t1: timestamp_start" style="text;strokeColor=none;fillColor=none;align=left;verticalAlign=middle;spacingLeft=4;spacingRight=4;overflow=hidden;points=[[0,0.5],[1,0.5]];portConstraint=eastwest;rotatable=0;shadow=0;labelBorderColor=none;fontFamily=Courier New;fontSize=16;fontColor=default;" vertex="1" parent="xGp0LWbcIa5WqA4ROiRo-26">
          <mxGeometry y="30" width="280" height="30" as="geometry" />
        </mxCell>
        <mxCell id="xGp0LWbcIa5WqA4ROiRo-28" value="t2: timestamp_stop" style="text;strokeColor=none;fillColor=none;align=left;verticalAlign=middle;spacingLeft=4;spacingRight=4;overflow=hidden;points=[[0,0.5],[1,0.5]];portConstraint=eastwest;rotatable=0;shadow=0;labelBorderColor=none;fontFamily=Courier New;fontSize=16;fontColor=default;" vertex="1" parent="xGp0LWbcIa5WqA4ROiRo-26">
          <mxGeometry y="60" width="280" height="30" as="geometry" />
        </mxCell>
        <mxCell id="xGp0LWbcIa5WqA4ROiRo-29" value="elev: EL_track_controller" style="text;strokeColor=none;fillColor=none;align=left;verticalAlign=middle;spacingLeft=4;spacingRight=4;overflow=hidden;points=[[0,0.5],[1,0.5]];portConstraint=eastwest;rotatable=0;shadow=0;labelBorderColor=none;fontFamily=Courier New;fontSize=16;fontColor=default;" vertex="1" parent="xGp0LWbcIa5WqA4ROiRo-26">
          <mxGeometry y="90" width="280" height="30" as="geometry" />
        </mxCell>
        <mxCell id="xGp0LWbcIa5WqA4ROiRo-30" value="azim: AZ_track_controller" style="text;strokeColor=none;fillColor=none;align=left;verticalAlign=middle;spacingLeft=4;spacingRight=4;overflow=hidden;points=[[0,0.5],[1,0.5]];portConstraint=eastwest;rotatable=0;shadow=0;labelBorderColor=none;fontFamily=Courier New;fontSize=16;fontColor=default;" vertex="1" parent="xGp0LWbcIa5WqA4ROiRo-26">
          <mxGeometry y="120" width="280" height="30" as="geometry" />
        </mxCell>
      </root>
    </mxGraphModel>
  </diagram>
</mxfile>
